<svg width="90" height="90" viewBox="0 0 90 90" fill="none" xmlns="http://www.w3.org/2000/svg">
<path d="M36 75H54C69 75 75 69 75 54V36C75 21 69 15 54 15H36C21 15 15 21 15 36V54C15 69 21 75 36 75Z" stroke="#CCCCCC" stroke-width="2" stroke-linecap="round" stroke-linejoin="round"/>
<path d="M30.0375 15V7.5M45 15V7.5M60 15V7.5M75 30H82.5M75 45H82.5M75 60H82.5M60 75V82.5M45.0375 75V82.5M30.0375 75V82.5M7.5 30H15M7.5 45H15M7.5 60H15M39.375 63.75H50.625C60 63.75 63.75 60 63.75 50.625V39.375C63.75 30 60 26.25 50.625 26.25H39.375C30 26.25 26.25 30 26.25 39.375V50.625C26.25 60 30 63.75 39.375 63.75Z" stroke="#CCCCCC" stroke-width="2" stroke-linecap="round" stroke-linejoin="round"/>
</svg>
