<svg width="90" height="90" viewBox="0 0 90 90" fill="none" xmlns="http://www.w3.org/2000/svg">
<path d="M37.9125 41.8125H27.975C25.6125 41.8125 23.7 43.725 23.7 46.0875V65.2875H37.9125V41.8125Z" stroke="#CCCCCC" stroke-width="2" stroke-miterlimit="10" stroke-linecap="round" stroke-linejoin="round"/>
<path d="M47.8538 24.75H42.1538C39.7913 24.75 37.8788 26.6625 37.8788 29.025V65.25H52.0913V29.025C52.0913 26.6625 50.2163 24.75 47.8538 24.75ZM62.055 48.1875H52.1175V65.25H66.33V52.4625C66.2925 50.1 64.38 48.1875 62.055 48.1875Z" stroke="#CCCCCC" stroke-width="2" stroke-miterlimit="10" stroke-linecap="round" stroke-linejoin="round"/>
<path d="M33.75 82.5H56.25C75 82.5 82.5 75 82.5 56.25V33.75C82.5 15 75 7.5 56.25 7.5H33.75C15 7.5 7.5 15 7.5 33.75V56.25C7.5 75 15 82.5 33.75 82.5Z" stroke="#CCCCCC" stroke-width="2" stroke-linecap="round" stroke-linejoin="round"/>
</svg>
