<svg width="90" height="90" viewBox="0 0 90 90" fill="none" xmlns="http://www.w3.org/2000/svg">
<path d="M22.5 33.75V7.5M67.5 33.75V7.5M45 15V7.5M49.875 30.4125L54.825 40.3125C55.5 41.6625 57.3 43.0125 58.8 43.2375L67.7625 44.7375C73.5 45.7125 74.85 49.8375 70.725 53.9625L63.75 60.9375C62.5875 62.1 61.9125 64.3875 62.2875 66.0375L64.275 74.7C65.85 81.525 62.2125 84.1875 56.175 80.625L47.775 75.6375C46.2375 74.7375 43.7625 74.7375 42.225 75.6375L33.825 80.625C27.7875 84.1875 24.15 81.525 25.725 74.7L27.7125 66.0375C28.0875 64.425 27.4125 62.1375 26.25 60.9375L19.275 53.9625C15.15 49.8375 16.5 45.675 22.2375 44.7375L31.2 43.2375C32.7 42.975 34.5 41.6625 35.175 40.3125L40.125 30.4125C42.7875 25.05 47.2125 25.05 49.875 30.4125Z" stroke="#CCCCCC" stroke-width="2" stroke-linecap="round" stroke-linejoin="round"/>
</svg>
