<svg width="90" height="90" viewBox="0 0 90 90" fill="none" xmlns="http://www.w3.org/2000/svg">
<path d="M45.5625 61.875V69.75" stroke="#CCCCCC" stroke-width="2" stroke-linecap="round" stroke-linejoin="round"/>
<path d="M26.8125 82.5H64.3125V78.75C64.3125 74.625 60.9375 71.25 56.8125 71.25H34.3125C30.1875 71.25 26.8125 74.625 26.8125 78.75V82.5Z" stroke="#CCCCCC" stroke-width="2" stroke-miterlimit="10"/>
<path d="M23.0625 82.5H68.0625M45 60C30.4875 60 18.75 48.2625 18.75 33.75V22.5C18.75 14.2125 25.4625 7.5 33.75 7.5H56.25C64.5375 7.5 71.25 14.2125 71.25 22.5V33.75C71.25 48.2625 59.5125 60 45 60Z" stroke="#CCCCCC" stroke-width="2" stroke-linecap="round" stroke-linejoin="round"/>
<path d="M20.5125 43.6875C17.7 42.7875 15.225 41.1375 13.275 39.1875C9.9 35.4375 7.65 30.9375 7.65 25.6875C7.65 20.4375 11.775 16.3125 17.025 16.3125H19.4625C18.7125 18.0375 18.3375 19.95 18.3375 21.9375V33.1875C18.3375 36.9375 19.125 40.4625 20.5125 43.6875ZM69.4875 43.6875C72.3 42.7875 74.775 41.1375 76.725 39.1875C80.1 35.4375 82.35 30.9375 82.35 25.6875C82.35 20.4375 78.225 16.3125 72.975 16.3125H70.5375C71.2875 18.0375 71.6625 19.95 71.6625 21.9375V33.1875C71.6625 36.9375 70.875 40.4625 69.4875 43.6875Z" stroke="#CCCCCC" stroke-width="2" stroke-linecap="round" stroke-linejoin="round"/>
</svg>
